<svg id="Layer_1" data-name="Layer 1" xmlns="http://www.w3.org/2000/svg" viewBox="0 0 2097.21415 1309.20223"><defs><style>.cls-1{fill:#65b8bf;}</style></defs><path class="cls-1" d="M.78947,242.16221c26.0004,35.53013,73.51545,89.15471,144.04256,111.66437,95.88528,30.603,181.67128-13.10518,272.68086-61.2353C592.4647,200.06858,579.839,131.7275,671.81077,119.6916,809.639,101.6547,780.57353,231.32407,952.15117,224.15182c85.07838-3.55642,118.6195-94.18683,197.61706-104.46022,101.83-13.24268,123.17955,97.70424,235.91486,73.84257,55.14893-11.67288,61.45208-37.83957,108.76593-52.2301,121.508-36.95673,184.6604,53.46782,297.10546,35.1389,34.93042-5.69377,85.106-23.59189,142.15967-81.9659V.348L.28585-.27742Z" transform="translate(-0.28585 0.27742)"/><path class="cls-1" d="M177,1243c119.73714,53.99,275.31705,100.28729,386,31,119.65134-74.90149,117.68167-176.18158,240-241,137.52655-72.87747,204.23889,37.60938,384-28,146.00427-53.28882,123.00237-152.22884,226-164,35-4,83-4,131,18,74.31131,34.05935,202.75366,102.53064,553.5,80.5v-517H177.5Z" transform="translate(-0.28585 0.27742)"/></svg>